<?xml version="1.0" encoding="utf-8"?>
<!-- Generator: Adobe Illustrator 17.0.0, SVG Export Plug-In . SVG Version: 6.00 Build 0)  -->
<!DOCTYPE svg PUBLIC "-//W3C//DTD SVG 1.1//EN" "http://www.w3.org/Graphics/SVG/1.1/DTD/svg11.dtd">
<svg version="1.1" xmlns="http://www.w3.org/2000/svg" xmlns:xlink="http://www.w3.org/1999/xlink" x="0px" y="0px" width="750px"
	 height="500px" viewBox="0 0 750 500" enable-background="new 0 0 750 500" xml:space="preserve">
<g id="BACKGROUND" display="none">
	<radialGradient id="SVGID_1_" cx="375" cy="250" r="716.5588" gradientUnits="userSpaceOnUse">
		<stop  offset="0" style="stop-color:#FFFFFF"/>
		<stop  offset="1" style="stop-color:#B3B3B3"/>
	</radialGradient>
	<rect x="0" y="0" display="inline" fill="url(#SVGID_1_)" width="750" height="500"/>
</g>
<g id="OBJECTS">
	<g>
		<linearGradient id="SVGID_2_" gradientUnits="userSpaceOnUse" x1="374.9587" y1="312.3374" x2="374.9587" y2="63.1837">
			<stop  offset="0" style="stop-color:#F4E0EB"/>
			<stop  offset="1" style="stop-color:#D5E5FC"/>
		</linearGradient>
		<path fill="url(#SVGID_2_)" d="M0.784,61.599v205.515c0,0,89.953-16.66,236.744,27.869
			c180.33,54.703,308.696-66.475,511.605-24.525V61.599C505.229,102.689,328.741,19.599,0.784,61.599z"/>
		<linearGradient id="SVGID_3_" gradientUnits="userSpaceOnUse" x1="374.9587" y1="312.1147" x2="374.9587" y2="82.122">
			<stop  offset="0" style="stop-color:#F4E0EB"/>
			<stop  offset="1" style="stop-color:#D5E5FC"/>
		</linearGradient>
		<path fill="url(#SVGID_3_)" d="M237.528,294.983C90.737,250.454,0.784,267.114,0.784,267.114v122.966
			c0,0,85.765-27.91,333.615-27.91s414.735,33.418,414.735,33.418v-125.13C546.224,228.508,417.859,349.686,237.528,294.983z"/>
		<path opacity="0.5" fill="#FFFFFF" d="M237.528,294.983C90.737,250.454,0.784,267.114,0.784,267.114v122.966
			c0,0,85.765-27.91,333.615-27.91s414.735,33.418,414.735,33.418v-125.13C546.224,228.508,417.859,349.686,237.528,294.983z"/>
	</g>
	<path fill="#FFFFFF" d="M574.68,228.505h75.369c0,0-2.638-7.309-13.943-5.055c-7.914-16.211-26.002-21.06-36.554-6.577
		C580.709,214.399,574.68,228.505,574.68,228.505z"/>
	<path fill="#FFFFFF" d="M79.053,218.557h56.975c0,0-1.994-5.525-10.54-3.821c-5.982-12.255-19.656-15.921-27.633-4.972
		C83.611,207.894,79.053,218.557,79.053,218.557z"/>
	<path fill="#FFFFFF" d="M85.739,136.171c-13.274-32.582-56.114-21.722-59.734,2.414c-9.654-5.229-18.159-5.484-25.221-3.518v16.792
		h116.934C117.718,151.859,109.271,133.758,85.739,136.171z"/>
	<path fill="#FFFFFF" d="M740.566,129.403c-8.859-21.743-37.447-14.496-39.863,1.611c-19.327-10.469-31.81,8.858-31.81,8.858h80.449
		v-9.862C746.852,129.346,743.943,129.056,740.566,129.403z"/>
	<g>
		<g>
			<path fill="#4C60A5" d="M352.355,345.828c-6.007-1.74-10.288,0.096-13.309,4.052l10.737,10.824L352.355,345.828z"/>
			<path fill="#4C60A5" d="M338.153,435.32l8.201-2.511c0,0,4.769-11.01,9.274-25.224l-12.966,1.665L338.153,435.32z"/>
			<polygon fill="#4C60A5" points="333.646,405.206 333.646,436.7 336.808,435.732 341.424,409.042 			"/>
			<path fill="#4C60A5" d="M346.706,378.494l2.814-16.271l-11.21-11.302c-2.269,3.47-3.743,8.239-4.665,13.548v4.228
				L346.706,378.494z"/>
			<path fill="#4C60A5" d="M342.885,407.956l13.156-1.689c1.336-4.293,2.635-8.846,3.764-13.46l-14.646,2.003L342.885,407.956z"/>
			<polygon fill="#4C60A5" points="346.466,379.883 333.646,370.265 333.646,387.388 344.151,393.269 			"/>
			<path fill="#4C60A5" d="M362.142,356.504c-1.442-4.889-4.148-8.551-8.583-10.268l-2.554,14.769L362.142,356.504z"/>
			<path fill="#4C60A5" d="M347.926,378.807l15.052-3.167c0.743-6.661,0.722-12.863-0.509-17.914l-11.716,4.736L347.926,378.807z"/>
			<polygon fill="#4C60A5" points="322.058,422.236 332.391,413.134 332.391,394.518 318.277,406.668 			"/>
			<path fill="#4C60A5" d="M345.383,393.512l14.736-2.016c1.158-4.887,2.115-9.816,2.707-14.542l-15.13,3.184L345.383,393.512z"/>
			<polygon fill="#4C60A5" points="343.924,394.581 333.646,388.827 333.646,403.808 341.647,407.752 			"/>
			<path fill="#4C60A5" d="M313.347,391.689l-29.314-1.81c1.215,5.742,2.774,11.502,4.641,17.108l28.112-1.141L313.347,391.689z"/>
			<path fill="#4C60A5" d="M308.71,372.603l-27.556-3.729c0.362,6.345,1.25,13.014,2.613,19.731l29.269,1.807L308.71,372.603z"/>
			<path fill="#4C60A5" d="M297.56,326.698c-7.811,1.909-12.642,9.177-14.952,19.394l21.07,5.793L297.56,326.698z"/>
			<path fill="#4C60A5" d="M309.559,370.778l19.722-20.536c-1.698-4.885-3.902-9.383-6.742-13.14l-17.302,15.884L309.559,370.778z"
				/>
			<path fill="#4C60A5" d="M317.088,407.09l-28.001,1.136c1.848,5.395,3.987,10.626,6.378,15.546l25.438-0.976L317.088,407.09z"/>
			<path fill="#4C60A5" d="M296.067,425.005c3.69,7.38,7.962,14.002,12.711,19.309l16.15-4.945l-3.724-15.329L296.067,425.005z"/>
			<polygon fill="#4C60A5" points="317.944,405.298 332.391,392.862 332.391,376.058 314.548,391.317 			"/>
			<path fill="#4C60A5" d="M314.216,389.949l18.175-15.543v-12.26c-0.684-3.609-1.554-7.169-2.656-10.565l-19.824,20.642
				L314.216,389.949z"/>
			<polygon fill="#4C60A5" points="322.393,423.613 326.13,439.001 332.391,437.084 332.391,414.806 			"/>
			<path fill="#4C60A5" d="M321.761,336.112c-4.19-5.134-9.681-8.716-16.87-9.708c-2.2-0.303-4.228-0.273-6.101,0.039l6.109,25.149
				L321.761,336.112z"/>
			<path fill="#4C60A5" d="M304.017,353.281l-21.669-5.959c-1.209,5.98-1.601,12.887-1.26,20.276l27.304,3.694L304.017,353.281z"/>
			<polygon fill="#637ABE" points="321.94,424.012 321.205,424.04 324.928,439.369 326.13,439.001 322.393,423.613 			"/>
			<path fill="#637ABE" d="M304.371,352.076l0.527-0.484l-6.109-25.149c-0.418,0.07-0.827,0.157-1.229,0.255l6.118,25.187
				L304.371,352.076z"/>
			<polygon fill="#637ABE" points="322.058,422.236 318.277,406.668 317.82,407.061 317.088,407.09 320.902,422.796 
				321.446,422.775 			"/>
			<polygon fill="#637ABE" points="317.944,405.298 314.548,391.317 314.062,391.733 313.347,391.689 316.785,405.846 
				317.332,405.824 			"/>
			<polygon fill="#637ABE" points="309.559,370.778 305.237,352.985 304.708,353.471 304.017,353.281 308.392,371.292 
				308.987,371.373 			"/>
			<polygon fill="#637ABE" points="314.216,389.949 309.91,372.224 309.45,372.703 308.71,372.603 313.036,390.412 313.632,390.449 
							"/>
			<polygon fill="#637ABE" points="346.466,379.883 344.151,393.269 344.742,393.6 345.383,393.512 347.696,380.139 
				347.001,380.285 			"/>
			<polygon fill="#637ABE" points="343.924,394.581 341.647,407.752 342.23,408.04 342.885,407.956 345.159,394.81 344.495,394.9 
							"/>
			<path fill="#637ABE" d="M350.345,361.272l0.659-0.266l2.554-14.769c-0.375-0.145-0.758-0.28-1.158-0.397
				c-0.015-0.004-0.03-0.007-0.045-0.012l-2.573,14.877L350.345,361.272z"/>
			<polygon fill="#637ABE" points="342.014,409.333 341.424,409.042 336.808,435.732 338.153,435.32 342.661,409.25 			"/>
			<polygon fill="#637ABE" points="349.52,362.223 346.706,378.494 347.299,378.939 347.926,378.807 350.752,362.462 
				350.041,362.749 			"/>
			<path fill="#637ABE" d="M303.678,351.885l-21.07-5.793c-0.091,0.404-0.176,0.816-0.26,1.23l21.669,5.959L303.678,351.885z"/>
			<path fill="#637ABE" d="M305.237,352.985l17.302-15.884c-0.254-0.336-0.513-0.666-0.778-0.99l-16.863,15.48L305.237,352.985z"/>
			<polygon fill="#637ABE" points="305.237,352.985 304.898,351.592 304.371,352.076 303.678,351.885 304.017,353.281 
				304.708,353.471 			"/>
			<path fill="#637ABE" d="M308.392,371.292l-27.304-3.694c0.02,0.424,0.042,0.849,0.066,1.276l27.556,3.729L308.392,371.292z"/>
			<path fill="#637ABE" d="M309.91,372.224l19.824-20.642c-0.146-0.45-0.299-0.896-0.453-1.34l-19.722,20.536L309.91,372.224z"/>
			<polygon fill="#637ABE" points="309.91,372.224 309.559,370.778 308.987,371.373 308.392,371.292 308.71,372.603 309.45,372.703 
							"/>
			<polygon fill="#637ABE" points="314.548,391.317 332.391,376.058 332.391,374.406 314.216,389.949 			"/>
			<path fill="#637ABE" d="M313.036,390.412l-29.269-1.807c0.086,0.424,0.175,0.849,0.265,1.274l29.314,1.81L313.036,390.412z"/>
			<polygon fill="#637ABE" points="314.548,391.317 314.216,389.949 313.632,390.449 313.036,390.412 313.347,391.689 
				314.062,391.733 			"/>
			<path fill="#637ABE" d="M332.74,404.76l0.555-1.125l0.35,0.172v-14.98l-0.934-0.523l0.613-1.096l0.321,0.18v-17.123l-1.004-0.753
				l0.753-1.004l0.251,0.188v-4.228c-0.155,0.89-0.295,1.795-0.42,2.712c-0.24-1.681-0.519-3.363-0.836-5.034v12.26l0.219-0.188
				l0.816,0.953l-1.036,0.886v16.804l0.218-0.188l0.819,0.951l-1.037,0.893v18.616l0.213-0.187l0.83,0.941l-1.042,0.918v22.278
				l1.255-0.384v-31.494L332.74,404.76z"/>
			<polygon fill="#637ABE" points="333.426,375.172 332.61,374.219 332.391,374.406 332.391,376.058 			"/>
			<path fill="#637ABE" d="M351.004,361.006l-0.252,1.456l11.716-4.736c-0.101-0.415-0.209-0.822-0.327-1.221L351.004,361.006z"/>
			<path fill="#637ABE" d="M349.783,360.705l-10.737-10.824c-0.254,0.332-0.499,0.679-0.736,1.04l11.21,11.302L349.783,360.705z"/>
			<polygon fill="#637ABE" points="349.783,360.705 349.52,362.223 350.041,362.749 350.752,362.462 351.004,361.006 
				350.345,361.272 			"/>
			<path fill="#637ABE" d="M347.696,380.139l15.13-3.184c0.055-0.441,0.103-0.877,0.152-1.315l-15.052,3.167L347.696,380.139z"/>
			<polygon fill="#637ABE" points="346.706,378.494 333.646,368.697 333.646,370.265 346.466,379.883 			"/>
			<polygon fill="#637ABE" points="346.706,378.494 346.466,379.883 347.001,380.285 347.696,380.139 347.926,378.807 
				347.299,378.939 			"/>
			<polygon fill="#637ABE" points="333.394,368.509 332.642,369.512 333.646,370.265 333.646,368.697 			"/>
			<polygon fill="#637ABE" points="344.151,393.269 333.646,387.388 333.646,388.827 343.924,394.581 			"/>
			<path fill="#637ABE" d="M345.159,394.81l14.646-2.003c0.107-0.436,0.211-0.873,0.314-1.31l-14.736,2.016L345.159,394.81z"/>
			<polygon fill="#637ABE" points="344.151,393.269 343.924,394.581 344.495,394.9 345.159,394.81 345.383,393.512 344.742,393.6 
							"/>
			<polygon fill="#637ABE" points="333.324,387.209 332.712,388.304 333.646,388.827 333.646,387.388 			"/>
			<path fill="#637ABE" d="M342.661,409.25l12.966-1.665c0.138-0.436,0.276-0.877,0.413-1.319l-13.156,1.689L342.661,409.25z"/>
			<polygon fill="#637ABE" points="333.646,403.808 333.646,405.206 341.424,409.042 341.647,407.752 			"/>
			<polygon fill="#637ABE" points="341.647,407.752 341.424,409.042 342.014,409.333 342.661,409.25 342.885,407.956 342.23,408.04 
							"/>
			<polygon fill="#637ABE" points="333.296,403.635 332.74,404.76 333.646,405.206 333.646,403.808 			"/>
			<path fill="#637ABE" d="M316.785,405.846l-28.112,1.141c0.138,0.413,0.272,0.828,0.413,1.239l28.001-1.136L316.785,405.846z"/>
			<polygon fill="#637ABE" points="318.277,406.668 332.391,394.518 332.391,392.862 317.944,405.298 			"/>
			<polygon fill="#637ABE" points="318.277,406.668 317.944,405.298 317.332,405.824 316.785,405.846 317.088,407.09 
				317.82,407.061 			"/>
			<polygon fill="#637ABE" points="333.427,393.626 332.609,392.675 332.391,392.862 332.391,394.518 			"/>
			<polygon fill="#637ABE" points="322.393,423.613 332.391,414.806 332.391,413.134 322.058,422.236 			"/>
			<path fill="#637ABE" d="M320.902,422.796l-25.438,0.976c0.2,0.412,0.399,0.825,0.602,1.233l25.137-0.964L320.902,422.796z"/>
			<polygon fill="#637ABE" points="321.446,422.775 320.902,422.796 321.205,424.04 321.94,424.012 322.393,423.613 
				322.058,422.236 			"/>
			<polygon fill="#637ABE" points="333.433,413.888 332.603,412.946 332.391,413.134 332.391,414.806 			"/>
		</g>
		<path fill="#82A7F7" d="M417.859,468.53c0,0-8.833-59.714-62.348-68.896c-53.515-9.182-47.04-84.786-120.16-81.777
			c-73.119,3.009-58.052,73.347-87.148,89.145c-29.096,15.798-42.605,61.527-42.605,61.527H417.859z"/>
		<path fill="#82A7F7" d="M408.721,468.53c0,0,0-48.418,57.385-65.471c57.385-17.053,43.722-105.863,115.454-92.2
			c71.732,13.663,36.891,104.523,64.9,124.335c28.009,19.812,21.861,33.337,21.861,33.337H408.721z"/>
		<g>
			<path fill="#A0ABE9" d="M127.615,468.795l2.167,0.038L90.459,327.881C78.19,332.808,127.615,468.795,127.615,468.795z"/>
			<path fill="#A0ABE9" d="M141.863,469.044l37.485-107.171c-9.713-0.473-22.276,41.431-28.128,63.16
				c-1.967,7.845-3.269,12.714-3.269,12.714s1.226-5.127,3.269-12.714c7.873-31.395,26.449-110.648,15.34-118.165L137.3,468.964
				L141.863,469.044z"/>
			<path fill="#A0ABE9" d="M132.659,468.883l-3.341-191.465c-13.539,9.163-1.703,166.243-1.703,166.243
				s-23.025-112.855-35.88-115.874l39.356,141.069L132.659,468.883z"/>
			<path fill="#A0ABE9" d="M151.219,425.033c-2.043,7.587-3.269,12.714-3.269,12.714S149.252,432.878,151.219,425.033z"/>
			<path fill="#A0ABE9" d="M136.028,468.942L165.37,306.39c-15.348-2.671-29.382,137.271-29.382,137.271
				s10.168-166.673-5.383-166.673c-0.013,0-0.026,0.007-0.039,0.007l3.349,191.911L136.028,468.942z"/>
			<path fill="#A0ABE9" d="M147.352,469.14c0,0,46.652-99.743,33.493-106.851c-0.09-0.049-0.182-0.077-0.272-0.117l-37.389,106.896
				L147.352,469.14z"/>
			<path fill="#697DD1" d="M131.091,468.855L91.735,327.786c-0.411-0.097-0.812-0.082-1.202,0.054
				c-0.027,0.009-0.048,0.031-0.074,0.041l39.324,140.952L131.091,468.855z"/>
			<path fill="#697DD1" d="M133.915,468.905l-3.349-191.911c-0.439,0.008-0.853,0.157-1.248,0.424l3.341,191.465L133.915,468.905z"
				/>
			<path fill="#697DD1" d="M137.3,468.964l29.259-162.096c-0.212-0.143-0.433-0.263-0.666-0.354
				c-0.175-0.068-0.349-0.095-0.523-0.125l-29.342,162.552L137.3,468.964z"/>
			<path fill="#697DD1" d="M143.185,469.067l37.389-106.896c-0.403-0.179-0.812-0.278-1.226-0.298l-37.485,107.171L143.185,469.067z
				"/>
		</g>
		<g>
			<path fill="#A0ABE9" d="M637.838,468.942l29.341-162.552c-15.348-2.667-29.381,137.271-29.381,137.271
				s10.168-166.673-5.383-166.673c-0.014,0-0.026,0.007-0.039,0.007l3.349,191.911L637.838,468.942z"/>
			<path fill="#A0ABE9" d="M643.672,469.044l37.485-107.171c-9.713-0.475-22.276,41.431-28.129,63.16
				c-1.967,7.845-3.269,12.714-3.269,12.714s1.226-5.127,3.269-12.714c7.873-31.395,26.45-110.65,15.339-118.165l-29.258,162.096
				L643.672,469.044z"/>
			<path fill="#A0ABE9" d="M653.028,425.033c-2.043,7.587-3.269,12.714-3.269,12.714S651.061,432.878,653.028,425.033z"/>
			<path fill="#A0ABE9" d="M649.161,469.14c0,0,46.652-99.743,33.494-106.851c-0.09-0.049-0.182-0.077-0.273-0.118l-37.389,106.896
				L649.161,469.14z"/>
			<path fill="#A0ABE9" d="M629.424,468.795l2.167,0.038l-39.323-140.952C579.999,332.808,629.424,468.795,629.424,468.795z"/>
			<path fill="#A0ABE9" d="M634.468,468.883l-3.341-191.465c-13.539,9.163-1.703,166.243-1.703,166.243
				s-23.025-112.856-35.88-115.874l39.356,141.069L634.468,468.883z"/>
			<path fill="#697DD1" d="M632.899,468.855l-39.356-141.069c-0.411-0.097-0.812-0.082-1.202,0.054
				c-0.027,0.009-0.048,0.031-0.074,0.041l39.323,140.952L632.899,468.855z"/>
			<path fill="#697DD1" d="M635.723,468.905l-3.349-191.911c-0.438,0.008-0.853,0.157-1.248,0.424l3.341,191.465L635.723,468.905z"
				/>
			<path fill="#697DD1" d="M639.109,468.964l29.258-162.096c-0.211-0.143-0.432-0.263-0.666-0.354
				c-0.175-0.068-0.349-0.095-0.524-0.125l-29.341,162.552L639.109,468.964z"/>
			<path fill="#697DD1" d="M644.993,469.067l37.389-106.896c-0.403-0.179-0.811-0.277-1.225-0.298l-37.485,107.171L644.993,469.067z
				"/>
		</g>
		<g>
			<path fill="#617FC8" d="M173.929,340.018l30.322,127.737l2.419-0.021l7.436-37.482
				C214.484,415.114,211.983,371.284,173.929,340.018z"/>
			<path fill="#617FC8" d="M173.419,468.022l13.419-0.116l-55.621-62.729C145.149,454.721,173.419,468.022,173.419,468.022z"/>
			<path fill="#617FC8" d="M131.527,403.635l56.975,64.256l3.54-0.031l-17.614-36.071
				C167.825,421.64,153.808,405.252,131.527,403.635z"/>
			<path fill="#617FC8" d="M174.704,429.494l18.729,38.354l9.531-0.083L172.865,340.97
				C158.952,375.829,168.467,412.221,174.704,429.494z"/>
			<path fill="#617FC8" d="M228.926,467.541c0,0,42.806-16.551,43.562-81.797l-56.597,81.91L228.926,467.541z"/>
			<path fill="#617FC8" d="M215.179,431.294l-7.227,36.428l6.406-0.056l57.671-83.463
				C231.277,401.255,218.791,422.344,215.179,431.294z"/>
			<path fill="#7AA2F7" d="M130.757,403.567c0.148,0.549,0.308,1.069,0.46,1.61l55.621,62.729l1.664-0.014l-56.975-64.256
				C131.268,403.616,131.018,403.582,130.757,403.567z"/>
			<path fill="#7AA2F7" d="M173.419,339.593c-0.191,0.458-0.371,0.918-0.554,1.377l30.099,126.796l1.287-0.011l-30.322-127.737
				C173.757,339.877,173.592,339.734,173.419,339.593z"/>
			<path fill="#7AA2F7" d="M272.028,384.204l-57.671,83.463l1.534-0.013l56.597-81.91c0.007-0.581,0.018-1.158,0.018-1.747
				C272.342,384.066,272.191,384.136,272.028,384.204z"/>
			<path fill="#637ABE" d="M178.505,438.888c0.268,0.581,0.419,0.887,0.419,0.887S178.784,439.457,178.505,438.888z"/>
			<path fill="#637ABE" d="M178.505,438.888c0.279,0.569,0.419,0.887,0.419,0.887S178.773,439.469,178.505,438.888
				c-0.631-1.286-1.98-3.876-4.077-7.099l17.614,36.071l1.391-0.012l-18.729-38.354
				C176.384,434.147,177.824,437.414,178.505,438.888z"/>
			<path fill="#637ABE" d="M213.788,435.646c0,0,0.233-1.962,0.319-5.395l-7.436,37.482l1.281-0.011l7.227-36.428
				C214.074,434.031,213.788,435.646,213.788,435.646z"/>
		</g>
		<g>
			<path fill="#4C60A5" d="M581.822,440.327l6.674,29.398h3.307l19.406-131.905C577.194,372.091,578.848,418.961,581.822,440.327z"
				/>
			<path fill="#4C60A5" d="M535.971,379.966l49.681,89.758h1.557l-7.362-32.429C574.019,420.464,561.138,393.307,535.971,379.966z"
				/>
			<path fill="#4C60A5" d="M576.786,469.725h7.432l-49.287-89.046C535.436,449.628,576.786,469.725,576.786,469.725z"/>
			<path fill="#4C60A5" d="M615.662,469.725c0,0,33.833-15.782,49.359-68.332l-54.903,68.332H615.662z"/>
			<path fill="#4C60A5" d="M616.437,442.215l-10.274,27.51h2.346l56.24-69.996C638.015,408.082,623.306,429.041,616.437,442.215z"/>
			<path fill="#4C60A5" d="M612.262,339.292l-19.189,130.432h11.75l10.291-27.554C620.783,421.862,629.399,377.926,612.262,339.292z
				"/>
			<path fill="#637ABE" d="M534.919,379.412c0,0.427,0.009,0.843,0.012,1.267l49.287,89.046h1.435l-49.681-89.758
				C535.621,379.781,535.274,379.592,534.919,379.412z"/>
			<path fill="#637ABE" d="M611.476,337.545c-0.091,0.091-0.176,0.184-0.267,0.275l-19.406,131.905h1.27l19.189-130.432
				C612.003,338.709,611.746,338.126,611.476,337.545z"/>
			<path fill="#637ABE" d="M664.749,399.729l-56.24,69.996h1.609l54.903-68.332c0.192-0.651,0.395-1.282,0.582-1.944
				C665.312,399.535,665.037,399.639,664.749,399.729z"/>
			<path fill="#637ABE" d="M583.255,448.683c0.49,1.973,0.708,3.099,0.708,3.099S583.671,450.686,583.255,448.683
				c-0.635-2.556-1.729-6.542-3.407-11.388l7.362,32.429h1.286l-6.674-29.398C582.316,443.874,582.846,446.716,583.255,448.683z"/>
			<path fill="#637ABE" d="M583.255,448.683c0.416,2.002,0.708,3.099,0.708,3.099S583.745,450.656,583.255,448.683z"/>
			<path fill="#637ABE" d="M612.271,451.364c-0.497,1.44-0.795,2.212-0.795,2.212S611.735,452.762,612.271,451.364
				c0.667-1.934,1.695-5.082,2.842-9.193l-10.291,27.554h1.341l10.274-27.51C614.389,446.144,613.037,449.367,612.271,451.364z"/>
			<path fill="#637ABE" d="M612.271,451.364c-0.536,1.398-0.795,2.212-0.795,2.212S611.774,452.804,612.271,451.364z"/>
		</g>
		<path fill="#D5E5FC" d="M390.479,432.869c-212.194,0-301.51,35.034-301.51,35.034s89.316,14.725,301.51,14.725
			s301.51-14.725,301.51-14.725S602.673,432.869,390.479,432.869z"/>
		<g>
			<g>
				<polygon fill="#FB6F6E" points="529.021,348.043 521.703,462.682 529.102,462.682 548.349,366.675 559.661,462.682 
					566.595,462.682 566.989,348.043 				"/>
			</g>
			<g>
				<polygon fill="#E0EEFB" points="486.253,314.074 486.153,314.895 481.273,355.251 575.516,355.251 566.46,315.407 
					551.51,266.509 516.84,272.757 516.123,272.886 515.411,272.736 469.57,263.088 485.996,313.288 				"/>
				<path fill="#FFFFFF" d="M580.187,358.979l-10.122-44.532l-15.958-52.195l-37.929,6.835l-52.16-10.978l18.434,56.338
					l-5.385,44.532H580.187z M515.411,272.736l0.712,0.15l0.717-0.129l34.67-6.248l14.95,48.898l9.056,39.844h-94.243l4.88-40.356
					l0.099-0.821l-0.257-0.786l-16.426-50.2L515.411,272.736z"/>
			</g>
			<path fill="#F3A9B8" d="M548.284,295.185L548.284,295.185c-3.244,0-5.874-2.63-5.874-5.874v-9.789h11.747v9.789
				C554.157,292.555,551.527,295.185,548.284,295.185z"/>
			<polygon opacity="0.7" fill="#E0EEFB" points="568.533,309.436 523.499,312.119 482.452,314.447 477.067,358.979 
				580.187,358.979 			"/>
			<g>
				<g>
					<g>
						<g>
							<path fill="#FFFFFF" d="M513.2,279.809c-1.096,0-2.293,1.011-3.421,2.402h6.842
								C515.493,280.82,514.296,279.809,513.2,279.809z"/>
						</g>
						<g>
							<path fill="#A0ABE9" d="M521.275,290.217c0,0-2.16-4.932-4.654-8.006h-6.842c-2.494,3.074-4.654,8.006-4.654,8.006H521.275z"
								/>
						</g>
					</g>
					<g>
						<g>
							<path fill="#FFFFFF" d="M504.694,283.246c-0.734,0-1.535,0.677-2.291,1.609h4.583
								C506.23,283.923,505.428,283.246,504.694,283.246z"/>
						</g>
						<g>
							<path fill="#A0ABE9" d="M510.102,290.217c0,0-1.447-3.303-3.117-5.362h-4.583c-1.67,2.059-3.117,5.362-3.117,5.362H510.102z"
								/>
						</g>
					</g>
					<g>
						<g>
							<path fill="#FFFFFF" d="M521.706,283.246c-0.734,0-1.535,0.677-2.291,1.609h4.583
								C523.242,283.923,522.44,283.246,521.706,283.246z"/>
						</g>
						<g>
							<path fill="#A0ABE9" d="M527.115,290.217c0,0-1.447-3.303-3.117-5.362h-4.583c-1.67,2.059-3.117,5.362-3.117,5.362H527.115z"
								/>
						</g>
					</g>
				</g>
				<path fill="#FB6F6E" d="M523.274,295.77c-3.148,1.619-5.604,4.171-7.457,7.685c-19.453-12.094-35.476-9.687-36.15-9.569
					l0.709,2.227c0.16-0.028,15.737-2.77,34.628,9.031c-0.509,1.168-0.974,2.408-1.371,3.765
					c-4.714,16.134-28.665,18.242-28.909,18.261l-0.281,1.878c0.849-0.068,17.333-1.503,26.255-11.289
					c3.194,2.447,16.237,14.236,8.135,37.493h2.001c8.31-23.854-5.298-36.158-8.936-38.928c1.526-1.98,2.755-4.259,3.525-6.892
					c1.741-5.96,4.588-9.886,8.704-12.004c5.829-2.996,14.267-2.396,26.559,1.905l0.615-1.76
					C538.496,293.096,529.59,292.522,523.274,295.77z"/>
				<g>
					<g>
						<path fill="#82A7F7" d="M483.105,340.102c0,0,7.669-7.676,15.877-2.362c8.208,5.314,10.24,1.608,13.895,5.263
							c4.896,4.896,0.323,12.249,0.323,12.249h-31.927L483.105,340.102z"/>
					</g>
				</g>
			</g>
			<polygon opacity="0.5" fill="#E0EEFB" points="516.178,269.088 523.998,315.052 529.021,358.979 477.067,358.979 
				482.452,314.448 464.018,258.11 			"/>
			<path fill="#F3A9B8" d="M552.333,302.376l11.736,24.095c0.793,1.628,2.284,2.807,4.051,3.204l0,0
				c3.938,0.885,7.694-2.328,7.243-6.339c-1.373-12.22-12.044-28.731-12.044-28.731L552.333,302.376z"/>
			<g>
				<g>
					<path fill="none" stroke="#2E3154" stroke-width="0.6275" stroke-miterlimit="10" d="M528.172,346.893
						c0,0-0.019-0.224-0.09-0.616"/>
					<path fill="none" stroke="#2E3154" stroke-width="0.6275" stroke-miterlimit="10" stroke-dasharray="1.2568,1.2568" d="
						M527.795,345.059c-1.022-3.59-4.715-11.291-17.692-12.41c-11.013-0.95-16.423-9.168-7.699-22.003
						c8.394-12.35,11.427-9.944,11.644-20.241"/>
					<path fill="none" stroke="#2E3154" stroke-width="0.6275" stroke-miterlimit="10" d="M514.057,289.758
						c0.002-0.204,0.003-0.414,0.003-0.628"/>
				</g>
			</g>
			<circle fill="#FB6F6E" cx="513.913" cy="290.926" r="2.708"/>
			<path fill="#F3A9B8" d="M543.655,256.66c0,0-8.721,1.657-8.721,15.741c0,14.084,7.695,13.67,13.167,10.149
				c5.472-3.521,8.037-12.22,4.275-20.298C548.614,254.175,543.655,256.66,543.655,256.66z"/>
			<path fill="#A0ABE9" d="M547.455,287.353c0,0-13.235-0.866-15.593,13.934c-1.923,12.073,2.163,16.906,1.817,27.109
				c-0.165,4.869-4.658,13.805-4.658,19.646c13.322,0,37.968,0,37.968,0s-1.066-6.092-4.154-19.647
				c-0.803-3.526,1.036-7.737,2.447-12.424C571.997,293.666,557.932,287.353,547.455,287.353z"/>
			<path fill="#FB6F6E" d="M543.239,270.468c0,0-9.032,0.836-10.018-9.819c-0.987-10.655,12.916-13.913,21.502-5.327
				c2.373-8.09,14.548-5.922,12.308,5.129c5.061,7.302-0.338,9.275-3.163,9.275c0,11.444-7.364,15.588-13.678,13.615
				C543.875,281.366,543.239,270.468,543.239,270.468z"/>
			<path fill="#F3A9B8" d="M532.379,298.008l-13.155,22.18l-28.817-4.201l-0.779,4.257c0,0,16.647,10.549,32.618,8.819
				c9.083-0.984,17.401-17.143,21.075-25.38c1.211-2.715,0.331-5.897-2.109-7.594l0,0
				C538.269,294.043,534.207,294.925,532.379,298.008z"/>
			<path fill="#F3A9B8" d="M543.239,270.468c0,0,3.11-0.33,3.11,2.93c0,3.26-4.006,3.59-4.006,3.59L543.239,270.468z"/>
			<path fill="#2E3154" d="M529.774,343.003c0,0-7.14,14.32-7.14,37.724c9.942,4.764,23.715,3.521,23.715,3.521l1.935-12.427
				l1.07,12.573c0,0,12.427,2.961,23.198-3.253c0.681-23.819-6.542-38.139-6.542-38.139S552.449,347.738,529.774,343.003z"/>
			<path fill="#2E3154" d="M520.38,463.991v-15.949h14.198l-2.83,19.861H510.69C510.69,467.903,512.81,463.991,520.38,463.991z"/>
			<path fill="#2E3154" d="M570.497,463.991v-15.949H556.3l2.788,19.861h21.099C580.187,467.903,578.067,463.991,570.497,463.991z"
				/>
			<g>
				<path fill="#5A75C2" d="M550.137,292.369c0,0-11.329,19.883-11.329,41.852c0,21.969,45.694,21.648,45.694,0
					c0-21.649-8.686-41.852-8.686-41.852H550.137z"/>
				<path fill="#4C60A5" d="M546.167,301.085h29.894c4.275,0,7.772-3.498,7.772-7.772l0,0c0-4.275-3.498-7.772-7.772-7.772h-29.524
					c-3.649,0-6.634,2.985-6.634,6.634v2.647C539.903,298.267,542.722,301.085,546.167,301.085z"/>
				<path fill="#4C60A5" d="M539.982,321.473c0,0-10.049,21.121,4.679,21.121c14.728,0,8.119-21.121,8.119-21.121H539.982z"/>
				<path fill="#4C60A5" d="M561.761,321.473c0,0-9.063,21.121,7.093,21.121c16.156,0,19.111-0.734,19.111-10.351
					c0-9.616-4.137-10.771-4.137-10.771H561.761z"/>
				<ellipse fill="#354B87" cx="545.234" cy="293.313" rx="5.758" ry="7.617"/>
				<path fill="#5A75C2" d="M554.259,285.541c0,0,7.048,8.425,0,15.545c3.588,0,3.588,0,3.588,0s7.443-7.836-0.189-15.545"/>
				<path fill="#5A75C2" d="M571.326,285.541c0,0,7.048,8.425,0,15.545c3.588,0,3.588,0,3.588,0s7.443-7.836-0.189-15.545"/>
			</g>
			<path fill="#F3A9B8" d="M491.686,316.583c0,0-4.164-5.262-5.147-4.915c-0.983,0.347,0.983,2.949,0.983,2.949
				s-5.783-0.867-6.592-0.867c-0.81,0-0.231,1.561,1.157,1.908c-1.243,1.243,0.289,4.221,4.511,4.568
				c4.221,0.347,5.436-0.347,5.436-0.347L491.686,316.583z"/>
		</g>
		<path fill="none" stroke="#2E3154" stroke-width="0.6275" stroke-miterlimit="10" d="M554.839,256.522c0,0-3.115,5.011,2.84,7.763
			c-1.464,3.144,1.926,6.534,5.611,5.257"/>
	</g>
</g>
<g id="DESIGNED_BY_FREEPIK">
</g>
</svg>
