<?xml version="1.0" encoding="utf-8"?>
<!-- Generator: Adobe Illustrator 17.0.0, SVG Export Plug-In . SVG Version: 6.00 Build 0)  -->
<!DOCTYPE svg PUBLIC "-//W3C//DTD SVG 1.1//EN" "http://www.w3.org/Graphics/SVG/1.1/DTD/svg11.dtd">
<svg version="1.1" id="Calque_1" xmlns="http://www.w3.org/2000/svg" xmlns:xlink="http://www.w3.org/1999/xlink" x="0px" y="0px"
	 width="200px" height="80px" viewBox="0 0 200 80" enable-background="new 0 0 200 80" xml:space="preserve">
<rect fill="#03736F" width="200" height="80"/>
<g>
	<path fill="#FFFFFF" d="M72.243,71.33h-0.509L49.636,10.755H22.67v1.236h6.877L13.09,71.33H8.222v1.236H37.44h0.529h10.598V71.33
		h-4.945V58.775h7.191h1.459h7.191V71.33h-4.945v1.236h12.579h5.146h2.812V71.33H72.243z M14.403,71.33l16.38-59.339h1.7
		L16.026,71.33H14.403z M16.643,71.33l16.458-59.339h2.086L18.73,71.33H16.643z M19.348,71.33l16.457-59.339h2.086L21.435,71.33
		H19.348z M22.052,71.33l16.457-59.339h2.009L24.061,71.33H22.052z M24.679,71.33l16.458-59.339h2.009L26.688,71.33H24.679z
		 M27.384,71.33l16.38-59.339h2.086L29.393,71.33H27.384z M30.088,71.33l16.38-59.339h1.546L31.633,71.33H30.088z M42.385,71.33
		h-4.416H37.44h-4.571l7.287-26.346h2.229V71.33z M59.463,57.54h-7.191h-1.459h-7.191V44.984h4.945v-1.236h-8.068l0.406-1.468
		l0.309-1.236l7.881-28.279l10.276,28.279l0.464,1.236l0.535,1.468h-5.852v1.236h4.945V57.54z M67.097,71.33H60.7V44.984h0.121
		l9.6,26.346H67.097z"/>
	<g>
		<path fill="#FFFFFF" d="M96.263,37.971h-1.166l-3.924-8.554H74.491l-3.924,8.554h-1.202L82.267,9.695h1.061L96.263,37.971z
			 M90.714,28.428l-7.917-17.283L74.95,28.428H90.714z"/>
		<path fill="#FFFFFF" d="M111.99,36.133c-0.565,0.612-1.314,1.16-2.244,1.643c-0.931,0.483-1.926,0.725-2.987,0.725
			c-0.942,0-1.85-0.177-2.721-0.53c-0.872-0.354-1.644-0.849-2.316-1.485c-0.671-0.636-1.214-1.384-1.625-2.244
			c-0.412-0.86-0.619-1.796-0.619-2.81V16.551h-2.509v-0.776h2.509v-4.206l1.061-1.025v5.231h9.118v0.776h-9.118V31.29
			c0,0.92,0.17,1.762,0.512,2.528c0.341,0.765,0.795,1.431,1.36,1.996c0.565,0.565,1.225,1.008,1.979,1.326
			c0.754,0.319,1.543,0.477,2.368,0.477c0.424,0,0.866-0.058,1.326-0.176c0.459-0.118,0.888-0.277,1.29-0.478
			c0.4-0.2,0.778-0.429,1.131-0.688c0.354-0.259,0.636-0.519,0.848-0.778L111.99,36.133z"/>
		<path fill="#FFFFFF" d="M134.152,15.562l-14.597,30.254h-1.237l4.242-8.765l-10.25-21.489h1.307l9.473,20.287l9.79-20.287H134.152
			z"/>
		<path fill="#FFFFFF" d="M160.73,26.625c0,1.579-0.307,3.087-0.921,4.524c-0.614,1.439-1.452,2.698-2.513,3.783
			c-1.062,1.084-2.307,1.949-3.735,2.599c-1.428,0.648-2.956,0.971-4.584,0.971c-0.921,0-1.87-0.119-2.85-0.354
			c-0.979-0.235-1.935-0.617-2.867-1.149c-0.933-0.53-1.824-1.22-2.673-2.067c-0.849-0.849-1.592-1.896-2.23-3.146v13.996h-1.025
			V15.598h1.025v5.938c0.755-1.295,1.575-2.368,2.46-3.217c0.885-0.847,1.787-1.513,2.708-1.996
			c0.921-0.483,1.847-0.818,2.779-1.008c0.933-0.187,1.824-0.282,2.673-0.282c1.628,0,3.156,0.306,4.584,0.918
			c1.428,0.614,2.673,1.45,3.735,2.51c1.062,1.06,1.899,2.292,2.513,3.694C160.423,23.556,160.73,25.046,160.73,26.625z
			 M159.67,26.767c0-1.414-0.277-2.774-0.83-4.082c-0.554-1.308-1.315-2.462-2.28-3.464s-2.098-1.803-3.393-2.404
			c-1.296-0.601-2.698-0.902-4.206-0.902s-2.91,0.301-4.206,0.902c-1.296,0.601-2.421,1.402-3.376,2.404
			c-0.954,1.002-1.708,2.156-2.262,3.464c-0.553,1.308-0.83,2.668-0.83,4.082c0,1.413,0.277,2.774,0.83,4.082
			c0.553,1.308,1.308,2.462,2.262,3.464c0.955,1.002,2.08,1.803,3.376,2.404c1.295,0.601,2.698,0.901,4.206,0.901
			s2.91-0.3,4.206-0.901c1.295-0.601,2.427-1.402,3.393-2.404c0.966-1.002,1.726-2.156,2.28-3.464
			C159.393,29.541,159.67,28.179,159.67,26.767z"/>
		<path fill="#FFFFFF" d="M166.915,37.971h-1.061V16.516h-1.661v-0.918h2.722V37.971z M167.091,8.812
			c0,0.377-0.13,0.694-0.389,0.954s-0.578,0.388-0.954,0.388c-0.378,0-0.695-0.129-0.955-0.388s-0.389-0.577-0.389-0.954
			c0-0.401,0.13-0.731,0.389-0.991c0.259-0.259,0.577-0.388,0.955-0.388c0.376,0,0.694,0.129,0.954,0.388
			C166.962,8.081,167.091,8.411,167.091,8.812z"/>
		<path fill="#FFFFFF" d="M191.054,37.971h-1.131l-11.982-11.382l-3.958,3.818v7.564h-1.061V7.75h1.061v21.562l14.244-13.75h1.166
			l-10.851,10.462L191.054,37.971z"/>
	</g>
	<g>
		<path fill="#FFFFFF" d="M100.55,71.15h-0.922V59.504H82.082V71.15h-0.921V46.567h0.921v12.076h17.545V46.567h0.922V71.15z"/>
		<path fill="#FFFFFF" d="M124.977,61.408c0,1.414-0.267,2.74-0.8,3.979c-0.534,1.24-1.262,2.32-2.185,3.243
			c-0.923,0.921-2,1.648-3.231,2.181c-1.232,0.532-2.554,0.799-3.97,0.799c-1.415,0-2.744-0.267-3.985-0.799
			c-1.241-0.533-2.324-1.26-3.247-2.181c-0.923-0.923-1.651-2.002-2.185-3.243c-0.533-1.239-0.8-2.565-0.8-3.979
			c0-1.413,0.267-2.739,0.8-3.979c0.534-1.239,1.262-2.32,2.185-3.241c0.923-0.921,2.006-1.648,3.247-2.181
			c1.24-0.533,2.57-0.799,3.985-0.799c1.416,0,2.739,0.266,3.97,0.799c1.231,0.533,2.308,1.26,3.231,2.181s1.651,2.002,2.185,3.241
			C124.711,58.669,124.977,59.995,124.977,61.408z M124.056,61.408c0-1.249-0.246-2.447-0.737-3.594
			c-0.491-1.147-1.155-2.151-1.994-3.011c-0.839-0.862-1.82-1.547-2.945-2.059c-1.125-0.512-2.321-0.768-3.589-0.768
			s-2.47,0.256-3.605,0.768c-1.135,0.512-2.122,1.197-2.96,2.059c-0.839,0.86-1.503,1.864-1.994,3.011
			c-0.491,1.147-0.736,2.346-0.736,3.594c0,1.25,0.245,2.444,0.736,3.58c0.491,1.137,1.155,2.141,1.994,3.013
			c0.839,0.87,1.82,1.561,2.945,2.073c1.125,0.512,2.332,0.768,3.62,0.768c1.268,0,2.464-0.256,3.589-0.768
			c1.124-0.512,2.106-1.203,2.945-2.073c0.839-0.872,1.503-1.875,1.994-3.013C123.81,63.852,124.056,62.658,124.056,61.408z"/>
		<path fill="#FFFFFF" d="M146.548,71.119h-0.921l0.031-4.179c-0.43,0.736-0.942,1.394-1.536,1.965
			c-0.594,0.575-1.244,1.06-1.952,1.46c-0.706,0.4-1.444,0.707-2.212,0.923c-0.768,0.214-1.532,0.322-2.289,0.322
			c-1.291,0-2.479-0.205-3.564-0.615c-1.087-0.409-2.023-0.999-2.812-1.766c-0.789-0.768-1.403-1.701-1.844-2.797
			c-0.441-1.095-0.661-2.32-0.661-3.671V51.668h0.921v11.093c0,1.249,0.226,2.371,0.677,3.364c0.45,0.994,1.045,1.84,1.782,2.536
			c0.738,0.696,1.583,1.234,2.535,1.613c0.953,0.38,1.941,0.569,2.966,0.569c1.003,0,1.986-0.2,2.95-0.599
			c0.963-0.4,1.812-0.947,2.55-1.643c0.738-0.698,1.331-1.511,1.783-2.444c0.45-0.931,0.676-1.94,0.676-3.025V51.668h0.921V71.119z"
			/>
		<path fill="#FFFFFF" d="M168.334,66.54c0,0.983-0.318,1.803-0.955,2.458c-0.636,0.656-1.416,1.178-2.339,1.566
			c-0.924,0.39-1.914,0.661-2.971,0.815c-1.058,0.153-1.996,0.23-2.816,0.23c-1.355,0-2.776-0.174-4.263-0.522
			c-1.489-0.348-2.909-0.984-4.264-1.906l0.707-0.707c0.613,0.43,1.257,0.794,1.932,1.091c0.675,0.298,1.355,0.545,2.04,0.738
			c0.685,0.195,1.36,0.333,2.024,0.416s1.283,0.122,1.856,0.122c0.491,0,1.073-0.035,1.748-0.108c0.674-0.071,1.36-0.2,2.055-0.383
			c0.695-0.185,1.365-0.435,2.009-0.752c0.644-0.317,1.18-0.723,1.61-1.215c0.184-0.226,0.347-0.491,0.491-0.799
			c0.143-0.308,0.214-0.635,0.214-0.983c0-0.656-0.205-1.224-0.615-1.706c-0.41-0.48-0.912-0.891-1.505-1.229
			c-0.594-0.338-1.229-0.614-1.905-0.83c-0.676-0.214-1.281-0.383-1.813-0.506l-5.039-1.137c-0.758-0.185-1.496-0.409-2.213-0.677
			c-0.717-0.266-1.357-0.593-1.92-0.983c-0.563-0.39-1.014-0.855-1.352-1.398c-0.338-0.543-0.507-1.173-0.507-1.89
			c0-0.881,0.282-1.638,0.845-2.273c0.564-0.635,1.276-1.158,2.136-1.567c0.86-0.409,1.802-0.712,2.826-0.907
			c1.025-0.195,1.987-0.292,2.889-0.292c0.676,0,1.377,0.042,2.105,0.122c0.727,0.082,1.449,0.216,2.167,0.4
			c0.716,0.185,1.428,0.43,2.135,0.738c0.706,0.308,1.367,0.686,1.982,1.137l-0.705,0.675c-0.553-0.388-1.161-0.731-1.825-1.029
			c-0.665-0.296-1.334-0.536-2.009-0.722c-0.675-0.184-1.344-0.322-2.009-0.414c-0.665-0.093-1.283-0.139-1.855-0.139
			c-0.511,0-1.095,0.045-1.749,0.139c-0.654,0.092-1.308,0.24-1.962,0.445c-0.655,0.205-1.278,0.472-1.871,0.799
			c-0.593,0.329-1.083,0.717-1.472,1.168c-0.164,0.205-0.322,0.461-0.475,0.768c-0.153,0.306-0.23,0.635-0.23,0.983
			c0,0.451,0.097,0.855,0.292,1.213c0.195,0.359,0.445,0.681,0.753,0.968c0.307,0.288,0.655,0.533,1.045,0.738
			c0.389,0.205,0.789,0.38,1.199,0.522l1.628,0.524c0.287,0.082,0.564,0.153,0.83,0.214c0.267,0.061,0.532,0.113,0.799,0.153
			l4.333,1.015c0.737,0.184,1.464,0.409,2.181,0.677c0.717,0.266,1.357,0.593,1.921,0.983c0.563,0.39,1.018,0.851,1.367,1.382
			C168.159,65.199,168.334,65.824,168.334,66.54z"/>
		<path fill="#FFFFFF" d="M191.778,61.377v0.369h-19.481c0.081,1.229,0.374,2.397,0.876,3.504c0.502,1.105,1.168,2.073,1.998,2.903
			c0.83,0.83,1.792,1.485,2.888,1.967c1.096,0.482,2.279,0.722,3.549,0.722c1.107,0,2.151-0.195,3.134-0.583
			c0.984-0.39,1.906-0.933,2.766-1.629l0.615,0.614c-0.922,0.759-1.941,1.342-3.058,1.751c-1.116,0.411-2.269,0.615-3.457,0.615
			c-1.413,0-2.739-0.272-3.979-0.815c-1.24-0.541-2.32-1.274-3.241-2.196c-0.922-0.923-1.654-2.002-2.197-3.243
			c-0.543-1.239-0.814-2.555-0.814-3.949c0-1.413,0.267-2.739,0.8-3.979c0.534-1.239,1.262-2.32,2.185-3.241
			s2.006-1.648,3.247-2.181c1.24-0.533,2.57-0.799,3.985-0.799c1.416,0,2.739,0.272,3.97,0.814c1.231,0.543,2.308,1.281,3.231,2.214
			c0.923,0.931,1.651,2.012,2.185,3.241C191.511,58.705,191.778,60.006,191.778,61.377z M190.857,60.978
			c-0.082-1.224-0.374-2.383-0.875-3.475c-0.501-1.092-1.166-2.048-1.994-2.863c-0.829-0.817-1.79-1.464-2.884-1.944
			c-1.094-0.48-2.264-0.72-3.512-0.72c-1.268,0-2.449,0.245-3.543,0.735c-1.095,0.49-2.061,1.149-2.899,1.975
			c-0.839,0.826-1.509,1.787-2.01,2.879c-0.501,1.092-0.782,2.23-0.843,3.414H190.857z"/>
	</g>
</g>
</svg>
