<?xml version="1.0" encoding="utf-8"?>
<!-- Generator: Adobe Illustrator 17.0.0, SVG Export Plug-In . SVG Version: 6.00 Build 0)  -->
<!DOCTYPE svg PUBLIC "-//W3C//DTD SVG 1.1//EN" "http://www.w3.org/Graphics/SVG/1.1/DTD/svg11.dtd">
<svg version="1.1" id="Calque_1" xmlns="http://www.w3.org/2000/svg" xmlns:xlink="http://www.w3.org/1999/xlink" x="0px" y="0px"
	 width="80px" height="80px" viewBox="0 0 80 80" enable-background="new 0 0 80 80" xml:space="preserve">
<g>
	<circle fill="#03736F" cx="39.892" cy="39.567" r="39.104"/>
	<path fill="#FFFFFF" d="M65.042,60.558h-0.419L46.464,10.781H24.305v1.015h5.651L16.432,60.558h-4v1.016h24.01h0.434h8.709v-1.016
		h-4.064V50.241h5.91h1.199h5.91v10.317h-4.064v1.016h10.337h4.229h2.311v-1.016H65.042z M17.511,60.558l13.46-48.762h1.397
		L18.844,60.558H17.511z M19.352,60.558l13.524-48.762h1.714L21.067,60.558H19.352z M21.575,60.558l13.524-48.762h1.714
		L23.289,60.558H21.575z M23.797,60.558l13.524-48.762h1.651L25.448,60.558H23.797z M25.955,60.558L39.48,11.796h1.651
		L27.606,60.558H25.955z M28.178,60.558l13.46-48.762h1.714L29.829,60.558H28.178z M30.4,60.558l13.46-48.762h1.27L31.67,60.558
		H30.4z M40.506,60.558h-3.629h-0.434h-3.756l5.989-21.65h1.831V60.558z M54.54,49.226h-5.91h-1.199h-5.91V38.908h4.064v-1.016
		h-6.63l0.334-1.207l0.254-1.016l6.476-23.238l8.444,23.238l0.381,1.016l0.44,1.207h-4.809v1.016h4.064V49.226z M60.813,60.558
		h-5.257v-21.65h0.099l7.888,21.65H60.813z"/>
</g>
</svg>
