<?xml version="1.0" encoding="utf-8"?>
<!-- Generator: Adobe Illustrator 17.0.0, SVG Export Plug-In . SVG Version: 6.00 Build 0)  -->
<!DOCTYPE svg PUBLIC "-//W3C//DTD SVG 1.1//EN" "http://www.w3.org/Graphics/SVG/1.1/DTD/svg11.dtd">
<svg version="1.1" id="Calque_1" xmlns="http://www.w3.org/2000/svg" xmlns:xlink="http://www.w3.org/1999/xlink" x="0px" y="0px"
	 width="200px" height="80px" viewBox="0 0 200 80" enable-background="new 0 0 200 80" xml:space="preserve">
<path fill="#FFFFFF" d="M69.673,74.006h-0.547L45.395,8.955H16.437v1.327h7.385L6.148,74.006H0.921v1.328h31.377h0.568h11.381
	v-1.328h-5.31V60.523h7.723h1.567h7.723v13.483h-5.31v1.328h13.509h5.526h3.02v-1.328H69.673z M7.559,74.006l17.59-63.724h1.825
	L9.301,74.006H7.559z M9.965,74.006l17.674-63.724h2.24L12.205,74.006H9.965z M12.87,74.006l17.673-63.724h2.24L15.11,74.006H12.87z
	 M15.773,74.006l17.673-63.724h2.157L17.931,74.006H15.773z M18.594,74.006l17.674-63.724h2.157L20.752,74.006H18.594z
	 M21.499,74.006l17.59-63.724h2.24L23.656,74.006H21.499z M24.403,74.006l17.59-63.724h1.66L26.062,74.006H24.403z M37.609,74.006
	h-4.743h-0.568H27.39l7.826-28.293h2.393V74.006z M55.949,59.196h-7.723h-1.567h-7.723V45.713h5.31v-1.328h-8.664l0.436-1.577
	l0.332-1.328l8.463-30.368L55.85,41.481l0.498,1.328l0.575,1.577h-6.284v1.328h5.31V59.196z M64.147,74.006h-6.87V45.713h0.13
	l10.309,28.293H64.147z"/>
<g>
	<path fill="#FFFFFF" d="M95.468,38.181h-1.253l-4.214-9.186H72.086l-4.213,9.186h-1.291L80.437,7.817h1.138L95.468,38.181z
		 M89.509,27.934L81.006,9.373L72.58,27.934H89.509z"/>
	<path fill="#FFFFFF" d="M112.357,36.207c-0.607,0.658-1.411,1.246-2.41,1.765c-1,0.518-2.068,0.778-3.207,0.778
		c-1.012,0-1.987-0.189-2.922-0.569c-0.937-0.38-1.766-0.911-2.487-1.594c-0.721-0.683-1.304-1.486-1.746-2.41
		c-0.443-0.924-0.664-1.93-0.664-3.018V15.18h-2.695v-0.835h2.695V9.828l1.139-1.1v5.617h9.792v0.835h-9.792v15.828
		c0,0.987,0.183,1.892,0.55,2.714c0.366,0.823,0.854,1.537,1.461,2.144c0.607,0.607,1.316,1.082,2.125,1.424
		c0.81,0.342,1.657,0.512,2.543,0.512c0.456,0,0.93-0.062,1.424-0.189c0.493-0.126,0.954-0.298,1.385-0.513
		c0.43-0.215,0.836-0.461,1.214-0.74c0.38-0.279,0.683-0.556,0.911-0.836L112.357,36.207z"/>
	<path fill="#FFFFFF" d="M136.156,14.117l-15.676,32.49h-1.329l4.555-9.413L112.7,14.117h1.404l10.173,21.786l10.513-21.786H136.156
		z"/>
	<path fill="#FFFFFF" d="M164.698,25.998c0,1.695-0.33,3.315-0.989,4.858c-0.659,1.544-1.559,2.898-2.699,4.061
		c-1.14,1.164-2.477,2.094-4.011,2.791c-1.534,0.695-3.175,1.043-4.923,1.043c-0.989,0-2.009-0.127-3.06-0.38
		c-1.052-0.253-2.078-0.663-3.079-1.234c-1.002-0.569-1.958-1.31-2.871-2.22c-0.912-0.911-1.71-2.036-2.394-3.378v15.031h-1.101
		V14.155h1.101v6.377c0.811-1.391,1.691-2.543,2.642-3.454c0.951-0.911,1.919-1.625,2.908-2.144
		c0.989-0.518,1.983-0.879,2.984-1.082c1.002-0.202,1.958-0.304,2.87-0.304c1.748,0,3.389,0.33,4.923,0.987
		c1.534,0.658,2.871,1.556,4.011,2.695c1.14,1.138,2.04,2.461,2.699,3.966C164.369,22.702,164.698,24.302,164.698,25.998z
		 M163.56,26.149c0-1.518-0.298-2.979-0.892-4.384c-0.595-1.404-1.412-2.643-2.449-3.72c-1.037-1.075-2.253-1.936-3.643-2.581
		c-1.392-0.645-2.898-0.968-4.517-0.968s-3.125,0.323-4.516,0.968c-1.392,0.645-2.6,1.506-3.625,2.581
		c-1.024,1.076-1.835,2.316-2.429,3.72c-0.594,1.405-0.892,2.866-0.892,4.384c0,1.518,0.298,2.98,0.892,4.384
		c0.594,1.405,1.405,2.644,2.429,3.72c1.025,1.076,2.233,1.936,3.625,2.581c1.391,0.645,2.897,0.968,4.516,0.968
		s3.125-0.323,4.517-0.968c1.391-0.645,2.606-1.505,3.643-2.581c1.037-1.075,1.854-2.315,2.449-3.72
		C163.262,29.129,163.56,27.667,163.56,26.149z"/>
	<path fill="#FFFFFF" d="M171.34,38.181h-1.139v-23.04h-1.784v-0.987h2.923V38.181z M171.529,6.868c0,0.405-0.139,0.747-0.418,1.024
		c-0.279,0.279-0.62,0.418-1.024,0.418c-0.406,0-0.747-0.138-1.025-0.418c-0.279-0.278-0.418-0.619-0.418-1.024
		c0-0.43,0.139-0.785,0.418-1.063s0.619-0.418,1.025-0.418c0.404,0,0.746,0.139,1.024,0.418S171.529,6.438,171.529,6.868z"/>
	<path fill="#FFFFFF" d="M197.263,38.181h-1.214L183.181,25.96l-4.251,4.099v8.123h-1.139V5.729h1.139v23.154l15.296-14.765h1.253
		l-11.653,11.235L197.263,38.181z"/>
</g>
<g>
	<path fill="#FFFFFF" d="M100.071,73.811h-0.99V61.305H80.239v12.506h-0.99V47.413h0.99v12.968h18.842V47.413h0.99V73.811z"/>
	<path fill="#FFFFFF" d="M126.304,63.351c0,1.518-0.286,2.943-0.859,4.273c-0.574,1.331-1.355,2.491-2.347,3.482
		c-0.991,0.99-2.148,1.771-3.47,2.342c-1.323,0.572-2.743,0.858-4.264,0.858c-1.52,0-2.947-0.286-4.279-0.858
		c-1.333-0.572-2.496-1.353-3.487-2.342c-0.991-0.99-1.773-2.15-2.347-3.482c-0.573-1.33-0.859-2.755-0.859-4.273
		c0-1.517,0.286-2.942,0.859-4.273c0.574-1.33,1.355-2.491,2.347-3.481c0.991-0.99,2.154-1.771,3.487-2.343
		c1.332-0.572,2.759-0.858,4.279-0.858c1.521,0,2.941,0.286,4.264,0.858c1.322,0.573,2.478,1.353,3.47,2.343
		c0.991,0.99,1.773,2.15,2.347,3.481C126.017,60.409,126.304,61.834,126.304,63.351z M125.314,63.351
		c0-1.342-0.264-2.628-0.791-3.861c-0.527-1.232-1.24-2.31-2.141-3.233c-0.9-0.925-1.955-1.661-3.162-2.211
		c-1.208-0.55-2.493-0.825-3.855-0.825s-2.652,0.275-3.871,0.825c-1.219,0.55-2.278,1.286-3.179,2.211
		c-0.9,0.924-1.614,2.002-2.141,3.233c-0.528,1.233-0.791,2.519-0.791,3.861c0,1.343,0.263,2.624,0.791,3.844
		c0.527,1.221,1.24,2.299,2.141,3.234s1.955,1.677,3.162,2.227c1.208,0.55,2.504,0.825,3.887,0.825c1.362,0,2.646-0.275,3.855-0.825
		c1.208-0.55,2.262-1.292,3.162-2.227s1.614-2.013,2.141-3.234C125.05,65.974,125.314,64.693,125.314,63.351z"/>
	<path fill="#FFFFFF" d="M149.468,73.779h-0.99l0.033-4.488c-0.462,0.791-1.012,1.496-1.65,2.112
		c-0.638,0.617-1.336,1.138-2.096,1.567c-0.759,0.429-1.551,0.759-2.375,0.99c-0.825,0.231-1.645,0.346-2.458,0.346
		c-1.387,0-2.663-0.22-3.828-0.66c-1.167-0.439-2.173-1.073-3.02-1.897c-0.847-0.825-1.507-1.826-1.98-3.003
		c-0.473-1.176-0.709-2.491-0.709-3.943V52.891h0.99v11.912c0,1.342,0.242,2.547,0.727,3.613c0.484,1.067,1.122,1.975,1.913,2.722
		c0.792,0.748,1.7,1.326,2.722,1.733c1.023,0.407,2.085,0.611,3.185,0.611c1.077,0,2.133-0.215,3.168-0.644
		c1.034-0.429,1.946-1.017,2.739-1.766c0.792-0.748,1.43-1.622,1.914-2.624c0.484-1.001,0.726-2.084,0.726-3.25V52.891h0.99V73.779z
		"/>
	<path fill="#FFFFFF" d="M172.864,68.862c0,1.056-0.342,1.936-1.025,2.64c-0.683,0.704-1.521,1.265-2.512,1.682
		c-0.992,0.419-2.055,0.709-3.19,0.875c-1.136,0.165-2.144,0.247-3.024,0.247c-1.455,0-2.981-0.187-4.579-0.561
		c-1.599-0.374-3.124-1.056-4.579-2.046l0.759-0.759c0.658,0.462,1.349,0.853,2.074,1.171c0.725,0.319,1.455,0.584,2.19,0.792
		c0.735,0.209,1.46,0.358,2.174,0.445c0.714,0.088,1.378,0.132,1.993,0.132c0.527,0,1.152-0.039,1.877-0.116
		c0.724-0.077,1.46-0.215,2.207-0.413c0.747-0.198,1.465-0.467,2.157-0.808c0.691-0.341,1.267-0.776,1.729-1.304
		c0.197-0.242,0.373-0.529,0.527-0.858c0.153-0.33,0.23-0.682,0.23-1.056c0-0.703-0.22-1.314-0.66-1.831
		c-0.44-0.516-0.979-0.957-1.617-1.32c-0.638-0.363-1.32-0.66-2.046-0.891c-0.726-0.231-1.375-0.413-1.947-0.544l-5.412-1.221
		c-0.814-0.198-1.606-0.439-2.376-0.726c-0.77-0.285-1.458-0.638-2.062-1.056c-0.605-0.418-1.089-0.918-1.452-1.501
		c-0.363-0.583-0.545-1.259-0.545-2.029c0-0.946,0.303-1.76,0.907-2.442c0.606-0.682,1.37-1.243,2.294-1.683
		c0.924-0.439,1.935-0.764,3.035-0.973c1.1-0.209,2.134-0.314,3.102-0.314c0.726,0,1.479,0.045,2.26,0.132
		c0.781,0.088,1.556,0.231,2.327,0.429c0.769,0.198,1.534,0.462,2.293,0.791c0.759,0.33,1.468,0.738,2.128,1.221l-0.757,0.726
		c-0.593-0.418-1.246-0.786-1.96-1.105c-0.714-0.318-1.432-0.577-2.157-0.775s-1.444-0.347-2.157-0.445
		c-0.714-0.099-1.378-0.149-1.992-0.149c-0.549,0-1.176,0.049-1.878,0.149c-0.702,0.099-1.405,0.259-2.107,0.478
		c-0.703,0.22-1.373,0.506-2.009,0.858s-1.163,0.77-1.581,1.253c-0.176,0.221-0.346,0.495-0.51,0.825
		c-0.164,0.33-0.247,0.682-0.247,1.056c0,0.484,0.104,0.919,0.313,1.303c0.209,0.386,0.478,0.732,0.809,1.04
		c0.33,0.309,0.703,0.573,1.122,0.792c0.418,0.22,0.847,0.407,1.287,0.561l1.748,0.561c0.308,0.088,0.606,0.164,0.891,0.231
		c0.286,0.066,0.572,0.121,0.858,0.164l4.653,1.089c0.791,0.198,1.573,0.44,2.342,0.727c0.77,0.285,1.458,0.638,2.063,1.055
		c0.605,0.419,1.093,0.913,1.468,1.485C172.676,67.422,172.864,68.092,172.864,68.862z"/>
	<path fill="#FFFFFF" d="M198.04,63.318v0.396h-20.92c0.087,1.32,0.401,2.573,0.94,3.762c0.539,1.188,1.254,2.227,2.145,3.118
		c0.891,0.891,1.925,1.595,3.101,2.112c1.177,0.517,2.447,0.776,3.811,0.776c1.189,0,2.31-0.209,3.366-0.627
		c1.056-0.418,2.047-1.001,2.97-1.749l0.66,0.66c-0.99,0.814-2.085,1.441-3.284,1.881c-1.199,0.44-2.437,0.66-3.713,0.66
		c-1.517,0-2.942-0.292-4.273-0.875c-1.331-0.582-2.491-1.369-3.481-2.359c-0.99-0.99-1.777-2.15-2.36-3.482
		c-0.583-1.33-0.875-2.744-0.875-4.24c0-1.517,0.286-2.942,0.859-4.273c0.574-1.33,1.355-2.491,2.347-3.481
		c0.991-0.99,2.154-1.771,3.487-2.343c1.332-0.572,2.759-0.858,4.279-0.858c1.521,0,2.941,0.292,4.264,0.875
		c1.322,0.583,2.478,1.375,3.47,2.376s1.773,2.162,2.347,3.481C197.754,60.447,198.04,61.845,198.04,63.318z M197.051,62.889
		c-0.088-1.315-0.401-2.56-0.939-3.733c-0.538-1.173-1.252-2.198-2.141-3.074c-0.89-0.877-1.922-1.573-3.098-2.088
		c-1.175-0.516-2.432-0.773-3.771-0.773c-1.362,0-2.63,0.264-3.804,0.79c-1.176,0.526-2.214,1.233-3.113,2.121
		c-0.901,0.888-1.62,1.919-2.158,3.092s-0.84,2.394-0.906,3.666H197.051z"/>
</g>
</svg>
