<?xml version="1.0" encoding="utf-8"?>
<!-- Generator: Adobe Illustrator 17.0.0, SVG Export Plug-In . SVG Version: 6.00 Build 0)  -->
<!DOCTYPE svg PUBLIC "-//W3C//DTD SVG 1.1//EN" "http://www.w3.org/Graphics/SVG/1.1/DTD/svg11.dtd">
<svg version="1.1" id="Capa_1" xmlns="http://www.w3.org/2000/svg" xmlns:xlink="http://www.w3.org/1999/xlink" x="0px" y="0px"
	 width="1190.551px" height="1190.551px" viewBox="0 0 1190.551 1190.551" enable-background="new 0 0 1190.551 1190.551"
	 xml:space="preserve">
<path fill="#FFFFFF" d="M842.24,163.103c-181.279-181.282-476.247-181.282-657.526,0C121.111,226.706,77.605,306.611,58.892,394.184
	c-18.216,85.27-12.249,173.616,17.255,255.479c3.545,9.83,14.391,14.927,24.218,11.386c9.833-3.545,14.93-14.388,11.386-24.218
	c-27.108-75.216-32.589-156.387-15.848-234.743c17.179-80.411,57.144-153.8,115.572-212.227
	C378,23.335,648.955,23.335,815.48,189.86c79.303,79.306,123.696,184.723,124.999,296.838
	c1.303,111.911-40.403,218.169-117.43,299.197c-0.911,0.959-1.814,1.924-2.715,2.889c-1.596,1.706-3.188,3.416-4.854,5.081
	c-166.525,166.525-437.48,166.525-604.005,0c-0.887-0.887-1.75-1.788-2.605-2.69c-0.044-1.747-0.082-3.47-0.082-5.166
	c0-3.809,0.073-7.604,0.212-11.386c0.048-1.265,0.142-2.516,0.205-3.779c0.123-2.513,0.24-5.027,0.422-7.528
	c0.11-1.492,0.271-2.968,0.404-4.453c0.199-2.255,0.385-4.51,0.631-6.752c0.174-1.583,0.401-3.154,0.599-4.731
	c0.268-2.129,0.524-4.264,0.839-6.384c0.24-1.615,0.524-3.214,0.788-4.819c0.338-2.066,0.666-4.131,1.047-6.185
	c0.299-1.624,0.643-3.233,0.971-4.847c0.406-2.016,0.807-4.034,1.255-6.037c0.363-1.624,0.766-3.239,1.154-4.854
	c0.473-1.971,0.943-3.943,1.454-5.898c0.425-1.621,0.887-3.229,1.334-4.841c0.54-1.93,1.075-3.863,1.653-5.781
	c0.483-1.608,1-3.204,1.511-4.8c0.605-1.895,1.211-3.794,1.852-5.674c0.543-1.586,1.11-3.163,1.678-4.74
	c0.672-1.867,1.347-3.734,2.053-5.589c0.599-1.567,1.22-3.119,1.845-4.674c0.734-1.833,1.476-3.664,2.245-5.481
	c0.656-1.545,1.331-3.078,2.012-4.611c0.798-1.801,1.605-3.596,2.438-5.377c0.71-1.517,1.435-3.024,2.17-4.529
	c0.864-1.769,1.738-3.535,2.634-5.286c0.76-1.482,1.533-2.959,2.318-4.428c0.927-1.741,1.87-3.476,2.833-5.201
	c0.811-1.451,1.631-2.895,2.463-4.33c0.99-1.706,1.997-3.403,3.021-5.094c0.861-1.419,1.731-2.833,2.615-4.239
	c1.053-1.672,2.123-3.333,3.207-4.983c0.908-1.384,1.823-2.763,2.753-4.131c1.113-1.64,2.252-3.261,3.4-4.879
	c0.956-1.347,1.911-2.69,2.889-4.018c1.177-1.602,2.378-3.188,3.586-4.766c1-1.306,1.997-2.612,3.018-3.901
	c1.239-1.567,2.507-3.116,3.779-4.658c1.038-1.261,2.075-2.523,3.135-3.769c1.306-1.532,2.64-3.043,3.977-4.551
	c1.078-1.217,2.151-2.438,3.249-3.637c1.369-1.495,2.766-2.962,4.166-4.428c1.116-1.173,2.226-2.349,3.362-3.507
	c1.435-1.457,2.901-2.882,4.365-4.314c1.148-1.12,2.287-2.252,3.454-3.355c1.508-1.425,3.05-2.817,4.586-4.21
	c1.173-1.062,2.331-2.138,3.519-3.185c1.586-1.397,3.214-2.753,4.832-4.119c1.186-1,2.359-2.016,3.561-2.999
	c1.675-1.369,3.39-2.696,5.099-4.034c1.192-0.93,2.365-1.883,3.57-2.798c1.801-1.366,3.64-2.684,5.475-4.008
	c1.158-0.839,2.293-1.697,3.466-2.52c2.024-1.422,4.097-2.794,6.163-4.172c1.019-0.678,2.016-1.381,3.04-2.05
	c2.693-1.75,5.434-3.444,8.193-5.115c0.429-0.258,0.845-0.536,1.277-0.795c3.191-1.911,6.427-3.766,9.701-5.57
	c1.12-0.615,2.271-1.192,3.403-1.795c2.173-1.161,4.34-2.331,6.551-3.441c1.416-0.713,2.867-1.381,4.295-2.072
	c1.804-0.874,3.602-1.757,5.427-2.599c34.298,32.762,80.05,51.31,127.541,51.31s93.246-18.55,127.544-51.316
	c66.952,30.987,121.75,86.585,151.5,154.197c4.207,9.562,15.369,13.911,24.941,9.701c9.566-4.21,13.908-15.378,9.698-24.941
	c-32.541-73.957-89.193-133.057-160.902-168.732c20.805-30.519,32.062-66.559,32.062-103.748
	c0-101.922-82.921-184.843-184.843-184.843c-10.448,0-18.923,8.475-18.923,18.923s8.475,18.923,18.923,18.923
	c81.056,0,146.997,65.944,146.997,146.997c0,36.244-13.47,71.144-37.925,98.264c-0.003,0.003-0.006,0.006-0.01,0.01
	c-27.924,30.965-67.675,48.723-109.065,48.723c-41.391,0-81.145-17.759-109.065-48.723c-0.003-0.006-0.01-0.01-0.016-0.013
	c-24.452-27.129-37.919-62.02-37.919-98.258c0-39.562,15.488-76.676,43.615-104.499c7.43-7.352,7.494-19.333,0.142-26.76
	c-7.349-7.434-19.33-7.491-26.76-0.145c-35.364,34.976-54.842,81.643-54.842,131.391c0,37.152,11.228,73.166,31.999,103.669
	c-0.186,0.091-0.366,0.193-0.549,0.287c-1.476,0.738-2.917,1.52-4.381,2.274c-2.242,1.161-4.491,2.315-6.702,3.523
	c-1.564,0.852-3.094,1.747-4.642,2.621c-2.066,1.17-4.134,2.334-6.172,3.542c-1.58,0.94-3.135,1.911-4.699,2.873
	c-1.955,1.205-3.911,2.406-5.838,3.646c-1.574,1.013-3.119,2.053-4.674,3.088c-1.87,1.246-3.737,2.498-5.579,3.779
	c-1.548,1.078-3.078,2.179-4.608,3.28c-1.798,1.296-3.589,2.599-5.358,3.927c-1.517,1.139-3.015,2.293-4.51,3.454
	c-1.734,1.347-3.457,2.703-5.16,4.081c-1.476,1.192-2.939,2.4-4.397,3.615c-1.675,1.4-3.336,2.817-4.983,4.248
	c-1.429,1.239-2.848,2.489-4.255,3.753c-1.624,1.46-3.226,2.936-4.819,4.425c-1.375,1.284-2.747,2.57-4.103,3.879
	c-1.574,1.52-3.122,3.062-4.668,4.611c-1.318,1.322-2.637,2.64-3.93,3.98c-1.53,1.586-3.031,3.201-4.529,4.816
	c-1.252,1.35-2.513,2.693-3.744,4.065c-1.498,1.665-2.955,3.365-4.419,5.059c-1.177,1.363-2.362,2.712-3.516,4.091
	c-1.486,1.776-2.924,3.586-4.371,5.39c-1.075,1.344-2.173,2.668-3.229,4.027c-1.52,1.956-2.99,3.949-4.465,5.935
	c-0.927,1.249-1.879,2.476-2.788,3.737c-1.867,2.586-3.674,5.21-5.465,7.847c-0.47,0.694-0.968,1.369-1.435,2.066
	c-2.23,3.33-4.397,6.699-6.507,10.105c-0.728,1.177-1.413,2.378-2.126,3.561c-1.366,2.268-2.737,4.532-4.053,6.831
	c-0.82,1.435-1.596,2.895-2.394,4.343c-1.151,2.081-2.309,4.156-3.413,6.263c-0.82,1.561-1.596,3.142-2.394,4.715
	c-1.028,2.031-2.059,4.059-3.046,6.112c-0.785,1.634-1.533,3.287-2.293,4.93c-0.933,2.028-1.87,4.053-2.766,6.099
	c-0.738,1.688-1.444,3.39-2.154,5.091c-0.855,2.04-1.703,4.081-2.516,6.137c-0.685,1.728-1.341,3.466-1.997,5.204
	c-0.776,2.062-1.542,4.129-2.28,6.207c-0.624,1.763-1.23,3.535-1.829,5.311c-0.704,2.085-1.387,4.176-2.05,6.279
	c-0.565,1.788-1.11,3.583-1.646,5.381c-0.631,2.123-1.239,4.252-1.829,6.39c-0.498,1.804-0.987,3.611-1.457,5.427
	c-0.559,2.161-1.088,4.33-1.605,6.506c-0.432,1.817-0.861,3.63-1.261,5.453c-0.486,2.204-0.937,4.422-1.378,6.642
	c-0.363,1.817-0.731,3.634-1.066,5.459c-0.413,2.264-0.785,4.542-1.154,6.822c-0.29,1.798-0.596,3.592-0.858,5.396
	c-0.344,2.352-0.634,4.718-0.93,7.083c-0.218,1.753-0.457,3.504-0.65,5.263c-0.271,2.479-0.479,4.973-0.697,7.468
	c-0.145,1.662-0.319,3.318-0.438,4.989c-0.202,2.785-0.334,5.583-0.47,8.383c-0.067,1.391-0.17,2.772-0.221,4.166
	c-0.151,4.201-0.237,8.418-0.237,12.65c0,4.57,0.154,8.891,0.341,13.663c0.044,1.104,0.199,2.177,0.419,3.223
	c0.019,0.082,0.029,0.164,0.048,0.246c0.234,1.032,0.562,2.022,0.956,2.981c0.038,0.094,0.073,0.189,0.113,0.284
	c0.406,0.946,0.892,1.848,1.441,2.706c0.07,0.107,0.135,0.215,0.205,0.319c0.565,0.842,1.192,1.634,1.876,2.371
	c0.051,0.054,0.085,0.12,0.135,0.173l2.498,2.659c1.886,2.019,3.772,4.03,5.74,5.995c90.641,90.641,209.701,135.961,328.764,135.961
	s238.124-45.32,328.765-135.961c1.968-1.965,3.854-3.98,5.74-5.995l2.498-2.659c83.857-88.216,129.259-203.885,127.843-325.712
	C976.902,364.204,928.573,249.436,842.24,163.103z"/>
<path fill="#12B2A6" d="M907.31,672.351c-137.819,0-249.544,111.725-249.544,249.544c0,137.819,111.725,249.544,249.544,249.544
	c137.82,0,249.544-111.725,249.544-249.544C1156.855,784.076,1045.13,672.351,907.31,672.351z M1071.246,824.748l-212.573,241.936
	c-1.293,1.473-3.152,2.307-5.1,2.307c-0.081,0-0.166,0-0.248,0c-2.036-0.075-3.936-1.066-5.165-2.691L743.054,927.187
	c-2.26-2.99-1.666-7.245,1.323-9.505l46.754-35.318c1.432-1.089,3.247-1.571,5.026-1.306c1.781,0.244,3.393,1.191,4.476,2.623
	l56.764,75.132l159.644-181.701c1.188-1.354,2.864-2.178,4.659-2.297c1.771-0.126,3.566,0.482,4.917,1.676l44.015,38.681
	C1073.448,817.643,1073.723,821.935,1071.246,824.748z"/>
</svg>
