<?xml version="1.0" encoding="utf-8"?>
<!-- Generator: Adobe Illustrator 17.0.0, SVG Export Plug-In . SVG Version: 6.00 Build 0)  -->
<!DOCTYPE svg PUBLIC "-//W3C//DTD SVG 1.1//EN" "http://www.w3.org/Graphics/SVG/1.1/DTD/svg11.dtd">
<svg version="1.1" id="Capa_1" xmlns="http://www.w3.org/2000/svg" xmlns:xlink="http://www.w3.org/1999/xlink" x="0px" y="0px"
	 width="1190.551px" height="1190.551px" viewBox="-0.001 -174.331 1190.551 1190.551"
	 enable-background="new -0.001 -174.331 1190.551 1190.551" xml:space="preserve">
<path fill="#FFFFFF" d="M1010.237,6.006c-228.796-228.8-601.082-228.8-829.878,0C100.085,86.281,45.174,187.131,21.557,297.658
	C-1.434,405.279,6.097,516.782,43.335,620.104c4.474,12.407,18.163,18.84,30.566,14.37c12.411-4.474,18.844-18.159,14.37-30.566
	C54.058,508.976,47.14,406.529,68.269,307.634C89.951,206.146,140.392,113.52,214.135,39.777
	c210.175-210.175,552.153-210.175,762.328,0c100.09,100.094,156.12,233.143,157.764,374.646
	c1.644,141.245-50.994,275.356-148.211,377.623c-1.15,1.21-2.289,2.428-3.427,3.646c-2.014,2.153-4.024,4.311-6.126,6.413
	c-210.175,210.175-552.153,210.175-762.328,0c-1.119-1.119-2.209-2.257-3.288-3.395c-0.056-2.205-0.104-4.379-0.104-6.52
	c0-4.808,0.092-9.597,0.267-14.37c0.06-1.596,0.179-3.176,0.259-4.769c0.155-3.172,0.303-6.345,0.533-9.501
	c0.139-1.883,0.342-3.746,0.51-5.62c0.251-2.846,0.486-5.692,0.796-8.522c0.219-1.998,0.506-3.981,0.756-5.971
	c0.338-2.687,0.661-5.382,1.059-8.057c0.303-2.038,0.661-4.056,0.995-6.082c0.426-2.607,0.84-5.214,1.322-7.806
	c0.378-2.05,0.812-4.08,1.226-6.118c0.513-2.544,1.019-5.091,1.584-7.619c0.458-2.05,0.967-4.088,1.457-6.126
	c0.597-2.488,1.19-4.976,1.835-7.444c0.537-2.046,1.119-4.076,1.684-6.11c0.681-2.436,1.357-4.876,2.086-7.296
	c0.609-2.03,1.262-4.044,1.907-6.058c0.764-2.392,1.529-4.789,2.337-7.161c0.685-2.002,1.401-3.992,2.118-5.983
	c0.848-2.356,1.7-4.713,2.591-7.054c0.756-1.978,1.54-3.937,2.329-5.899c0.927-2.313,1.863-4.625,2.834-6.918
	c0.828-1.95,1.68-3.885,2.54-5.82c1.007-2.273,2.026-4.538,3.077-6.787c0.896-1.915,1.811-3.817,2.739-5.716
	c1.091-2.233,2.193-4.462,3.324-6.671c0.959-1.871,1.935-3.734,2.926-5.589c1.17-2.197,2.36-4.387,3.575-6.564
	c1.023-1.831,2.058-3.654,3.109-5.465c1.25-2.153,2.52-4.295,3.813-6.429c1.087-1.791,2.185-3.575,3.3-5.35
	c1.329-2.11,2.679-4.207,4.048-6.289c1.146-1.747,2.301-3.487,3.475-5.214c1.405-2.07,2.842-4.116,4.291-6.158
	c1.206-1.7,2.412-3.395,3.646-5.071c1.485-2.022,3.001-4.024,4.526-6.015c1.262-1.648,2.52-3.296,3.809-4.924
	c1.564-1.978,3.164-3.933,4.769-5.879c1.31-1.592,2.619-3.184,3.957-4.757c1.648-1.934,3.332-3.841,5.019-5.744
	c1.361-1.536,2.715-3.077,4.1-4.59c1.728-1.887,3.491-3.738,5.258-5.589c1.409-1.481,2.81-2.965,4.243-4.426
	c1.811-1.839,3.662-3.638,5.509-5.445c1.449-1.413,2.886-2.842,4.359-4.235c1.903-1.799,3.849-3.555,5.788-5.314
	c1.481-1.341,2.942-2.699,4.442-4.02c2.002-1.763,4.056-3.475,6.098-5.199c1.497-1.262,2.977-2.544,4.494-3.785
	c2.114-1.728,4.279-3.403,6.436-5.091c1.505-1.174,2.985-2.376,4.506-3.531c2.273-1.724,4.594-3.387,6.91-5.059
	c1.461-1.059,2.894-2.142,4.375-3.18c2.555-1.795,5.171-3.527,7.778-5.266c1.286-0.856,2.544-1.743,3.837-2.587
	c3.399-2.209,6.858-4.347,10.341-6.456c0.541-0.326,1.067-0.677,1.612-1.003c4.028-2.412,8.112-4.753,12.244-7.03
	c1.413-0.776,2.866-1.505,4.295-2.265c2.743-1.465,5.477-2.942,8.268-4.343c1.787-0.9,3.618-1.743,5.421-2.615
	c2.277-1.103,4.546-2.217,6.85-3.28c43.288,41.35,101.033,64.759,160.972,64.759c59.939,0,117.688-23.413,160.976-64.767
	c84.502,39.109,153.664,109.281,191.212,194.615c5.31,12.069,19.397,17.558,31.478,12.244c12.073-5.314,17.554-19.409,12.24-31.478
	c-41.071-93.343-112.573-167.934-203.078-212.961c26.259-38.519,40.466-84.005,40.466-130.943
	c0-128.638-104.656-233.294-233.294-233.294c-13.187,0-23.883,10.696-23.883,23.883s10.696,23.883,23.883,23.883
	c102.303,0,185.528,83.229,185.528,185.528c0,45.744-17.001,89.792-47.866,124.021c-0.004,0.004-0.008,0.008-0.012,0.012
	c-35.243,39.081-85.414,61.495-137.654,61.495s-102.415-22.414-137.654-61.495c-0.004-0.008-0.012-0.012-0.02-0.016
	c-30.861-34.24-47.858-78.277-47.858-124.013c0-49.932,19.548-96.774,55.047-131.89c9.378-9.279,9.458-24.401,0.179-33.775
	c-9.275-9.382-24.397-9.454-33.775-0.183c-44.634,44.144-69.217,103.044-69.217,165.832c0,46.89,14.171,92.344,40.386,130.843
	c-0.235,0.115-0.462,0.243-0.693,0.362c-1.863,0.931-3.682,1.919-5.529,2.87c-2.83,1.465-5.668,2.922-8.459,4.446
	c-1.974,1.075-3.905,2.205-5.859,3.308c-2.607,1.477-5.218,2.946-7.79,4.47c-1.994,1.186-3.957,2.412-5.931,3.626
	c-2.468,1.521-4.936,3.037-7.368,4.602c-1.986,1.278-3.937,2.591-5.899,3.897c-2.36,1.572-4.717,3.153-7.042,4.769
	c-1.954,1.361-3.885,2.75-5.816,4.14c-2.269,1.636-4.53,3.28-6.763,4.956c-1.915,1.437-3.805,2.894-5.692,4.359
	c-2.189,1.7-4.363,3.411-6.512,5.151c-1.863,1.505-3.71,3.029-5.549,4.562c-2.114,1.767-4.211,3.555-6.289,5.362
	c-1.803,1.564-3.594,3.141-5.37,4.737c-2.05,1.843-4.072,3.706-6.082,5.585c-1.735,1.62-3.467,3.244-5.179,4.896
	c-1.986,1.919-3.941,3.865-5.891,5.82c-1.664,1.668-3.328,3.332-4.96,5.023c-1.931,2.002-3.825,4.04-5.716,6.078
	c-1.58,1.704-3.172,3.399-4.725,5.131c-1.891,2.102-3.73,4.247-5.577,6.385c-1.485,1.72-2.981,3.423-4.438,5.163
	c-1.875,2.241-3.69,4.526-5.517,6.803c-1.357,1.696-2.743,3.367-4.076,5.083c-1.919,2.468-3.774,4.984-5.636,7.491
	c-1.17,1.576-2.372,3.125-3.519,4.717c-2.356,3.264-4.637,6.576-6.898,9.904c-0.593,0.876-1.222,1.728-1.811,2.607
	c-2.814,4.203-5.549,8.455-8.212,12.754c-0.919,1.485-1.783,3.001-2.683,4.494c-1.724,2.862-3.455,5.72-5.115,8.622
	c-1.035,1.811-2.014,3.654-3.021,5.481c-1.453,2.627-2.914,5.246-4.307,7.905c-1.035,1.97-2.014,3.965-3.021,5.951
	c-1.298,2.563-2.599,5.123-3.845,7.714c-0.991,2.062-1.935,4.148-2.894,6.222c-1.178,2.56-2.36,5.115-3.491,7.698
	c-0.931,2.13-1.823,4.279-2.719,6.425c-1.079,2.575-2.149,5.151-3.176,7.746c-0.864,2.181-1.692,4.375-2.52,6.568
	c-0.979,2.603-1.946,5.211-2.878,7.834c-0.788,2.225-1.552,4.462-2.309,6.703c-0.888,2.631-1.751,5.27-2.587,7.925
	c-0.713,2.257-1.401,4.522-2.078,6.791c-0.796,2.679-1.564,5.366-2.309,8.065c-0.629,2.277-1.246,4.558-1.839,6.85
	c-0.705,2.727-1.373,5.465-2.026,8.212c-0.545,2.293-1.087,4.582-1.592,6.882c-0.613,2.782-1.182,5.581-1.739,8.383
	c-0.458,2.293-0.923,4.586-1.345,6.89c-0.521,2.858-0.991,5.732-1.457,8.61c-0.366,2.269-0.752,4.534-1.083,6.811
	c-0.434,2.969-0.8,5.955-1.174,8.94c-0.275,2.213-0.577,4.422-0.82,6.643c-0.342,3.129-0.605,6.277-0.88,9.426
	c-0.183,2.098-0.402,4.188-0.553,6.297c-0.255,3.515-0.422,7.046-0.593,10.58c-0.084,1.755-0.215,3.499-0.279,5.258
	c-0.191,5.302-0.299,10.624-0.299,15.966c0,5.768,0.195,11.221,0.43,17.244c0.056,1.393,0.251,2.747,0.529,4.068
	c0.024,0.104,0.036,0.207,0.06,0.311c0.295,1.302,0.709,2.552,1.206,3.762c0.048,0.119,0.092,0.239,0.143,0.358
	c0.513,1.194,1.126,2.333,1.819,3.415c0.088,0.135,0.171,0.271,0.259,0.402c0.713,1.063,1.505,2.062,2.368,2.993
	c0.064,0.068,0.107,0.151,0.171,0.219l3.153,3.356c2.38,2.548,4.761,5.087,7.245,7.567c114.4,114.4,264.668,171.6,414.941,171.6
	s300.541-57.2,414.941-171.6c2.484-2.48,4.864-5.023,7.245-7.567l3.153-3.356c105.838-111.339,163.141-257.328,161.354-411.088
	C1180.197,259.82,1119.2,114.969,1010.237,6.006z"/>
</svg>
